<svg width="88" height="24" viewBox="0 0 88 24" fill="none" xmlns="http://www.w3.org/2000/svg">
<path d="M6.456 18.776H13.624V23H0.984V0.535999H6.456V18.776ZM26.858 23.224C24.746 23.224 22.8047 22.7333 21.034 21.752C19.2847 20.7707 17.8873 19.4053 16.842 17.656C15.818 15.8853 15.306 13.9013 15.306 11.704C15.306 9.50667 15.818 7.53333 16.842 5.784C17.8873 4.03467 19.2847 2.66933 21.034 1.688C22.8047 0.706666 24.746 0.216 26.858 0.216C28.97 0.216 30.9007 0.706666 32.65 1.688C34.4207 2.66933 35.8073 4.03467 36.81 5.784C37.834 7.53333 38.346 9.50667 38.346 11.704C38.346 13.9013 37.834 15.8853 36.81 17.656C35.786 19.4053 34.3993 20.7707 32.65 21.752C30.9007 22.7333 28.97 23.224 26.858 23.224ZM26.858 18.232C28.65 18.232 30.0793 17.6347 31.146 16.44C32.234 15.2453 32.778 13.6667 32.778 11.704C32.778 9.72 32.234 8.14133 31.146 6.968C30.0793 5.77333 28.65 5.176 26.858 5.176C25.0447 5.176 23.594 5.76267 22.506 6.936C21.4393 8.10933 20.906 9.69867 20.906 11.704C20.906 13.688 21.4393 15.2773 22.506 16.472C23.594 17.6453 25.0447 18.232 26.858 18.232ZM56.3022 7.64C55.8969 6.89333 55.3103 6.328 54.5423 5.944C53.7956 5.53867 52.9103 5.336 51.8863 5.336C50.1156 5.336 48.6969 5.92267 47.6302 7.096C46.5636 8.248 46.0303 9.79467 46.0303 11.736C46.0303 13.8053 46.5849 15.4267 47.6943 16.6C48.8249 17.752 50.3716 18.328 52.3343 18.328C53.6783 18.328 54.8089 17.9867 55.7263 17.304C56.6649 16.6213 57.3476 15.64 57.7743 14.36H50.8303V10.328H62.7343V15.416C62.3289 16.7813 61.6356 18.0507 60.6543 19.224C59.6943 20.3973 58.4676 21.3467 56.9743 22.072C55.4809 22.7973 53.7956 23.16 51.9183 23.16C49.6996 23.16 47.7156 22.68 45.9663 21.72C44.2383 20.7387 42.8836 19.384 41.9023 17.656C40.9423 15.928 40.4622 13.9547 40.4622 11.736C40.4622 9.51733 40.9423 7.544 41.9023 5.816C42.8836 4.06667 44.2383 2.712 45.9663 1.752C47.6943 0.770665 49.6676 0.279999 51.8863 0.279999C54.5743 0.279999 56.8356 0.930665 58.6703 2.232C60.5263 3.53333 61.7529 5.336 62.3503 7.64H56.3022ZM76.3893 23.224C74.2773 23.224 72.3359 22.7333 70.5653 21.752C68.8159 20.7707 67.4186 19.4053 66.3733 17.656C65.3492 15.8853 64.8372 13.9013 64.8372 11.704C64.8372 9.50667 65.3492 7.53333 66.3733 5.784C67.4186 4.03467 68.8159 2.66933 70.5653 1.688C72.3359 0.706666 74.2773 0.216 76.3893 0.216C78.5013 0.216 80.4319 0.706666 82.1813 1.688C83.9519 2.66933 85.3386 4.03467 86.3413 5.784C87.3653 7.53333 87.8773 9.50667 87.8773 11.704C87.8773 13.9013 87.3653 15.8853 86.3413 17.656C85.3173 19.4053 83.9306 20.7707 82.1813 21.752C80.4319 22.7333 78.5013 23.224 76.3893 23.224ZM76.3893 18.232C78.1813 18.232 79.6106 17.6347 80.6772 16.44C81.7653 15.2453 82.3093 13.6667 82.3093 11.704C82.3093 9.72 81.7653 8.14133 80.6772 6.968C79.6106 5.77333 78.1813 5.176 76.3893 5.176C74.5759 5.176 73.1253 5.76267 72.0373 6.936C70.9706 8.10933 70.4373 9.69867 70.4373 11.704C70.4373 13.688 70.9706 15.2773 72.0373 16.472C73.1253 17.6453 74.5759 18.232 76.3893 18.232Z" fill="white"/>
</svg>
